# xmcd
#
# Track frame offsets:
#	150
#	19057
#	37613
#	55395
#	75757
#	99148
#	117754
#	135752
#	148038
#	166750
#	195145
#	215409
#	233272
#	247057
#	272765
#	296057
#
# Disc length: 4260 seconds
#
# Revision: 0
# Processed by: cddbd v1.5.2PL0 Copyright (c) Steve Scherf et al.
# Submitted via: EZCDAudioConverter 4.0.5.1
#
DISCID=be10a210
DTITLE=ERG MUSIC - NU DANCE TRAXX VOLUME 297 US
DYEAR=2019
DGENRE=DANCE
TTITLE0=Dimitri Vegas and Like Mike ft. David Guetta - Instagram [EXT]
TTITLE1=Sam Feldt ft. RANI - Post Malone [EXT]
TTITLE2=Blanco Brown - The Git Up [MIXSHOW EDIT]
TTITLE3=One Bit - Back To You [EXT]
TTITLE4=MK - Body 2 Body [KC LIGHTS EXT]
TTITLE5=Bonka ft. Bianca - Focus [EXT]
TTITLE6=Phantoms ft. Anna Clendening - Say It [EXT]
TTITLE7=Showtek and Sultan and Shepard - Way We Used 2 [EXT]
TTITLE8=DubVision vs Vigel ft. Nino Lucarelli - Rescue Me [EXT]
TTITLE9=Kanomarli - Live Your Life [GEORGIE AND LUIS JACKIN HOUSE REMIX]
TTITLE10=Klaas ft. Miss Sister - Call Me When You Need Me [EXT]
TTITLE11=Tommy Capretto - Floss [EXT]
TTITLE12=Galantis x Yellow Claw - We Can Get High [EXT]
TTITLE13=Heather Small ft. Dirty Disco and Matt Consola - Proud [DIRTY DISCO M
TTITLE13=AINROOM MIXSHOW EDIT]
TTITLE14=Kosca - Heaven [EXT]
TTITLE15=Gorgon City x Kaskade ft. Romeo - Go Slow [EXT]
EXTD=
EXTT0=
EXTT1=
EXTT2=
EXTT3=
EXTT4=
EXTT5=
EXTT6=
EXTT7=
EXTT8=
EXTT9=
EXTT10=
EXTT11=
EXTT12=
EXTT13=
EXTT14=
EXTT15=
PLAYORDER=
